<?xml version="1.0" standalone="no"?>
<!DOCTYPE svg PUBLIC "-//W3C//DTD SVG 20010904//EN"
 "http://www.w3.org/TR/2001/REC-SVG-20010904/DTD/svg10.dtd">
<svg version="1.0" xmlns="http://www.w3.org/2000/svg"
 width="1062.000000pt" height="1068.000000pt" viewBox="0 0 1062.000000 1068.000000"
 preserveAspectRatio="xMidYMid meet">

<g transform="translate(0.000000,1068.000000) scale(0.100000,-0.100000)"
fill="#000000" stroke="none">
<path d="M5080 10323 c1 -142 4 -275 7 -296 6 -38 6 -38 47 -35 l41 3 0 113 0
112 57 0 c92 0 158 18 194 54 68 68 70 182 5 247 -48 48 -91 59 -234 59 l-118
0 1 -257z m270 148 c34 -24 40 -96 11 -132 -17 -21 -30 -25 -101 -29 -45 -3
-84 -3 -86 -1 -2 2 -4 44 -4 92 l0 88 38 4 c58 7 115 -2 142 -22z"/>
<path d="M5638 10283 c-70 -152 -126 -278 -125 -279 1 -1 22 -4 46 -6 l45 -3
33 69 c33 66 34 68 66 63 18 -3 71 -9 118 -12 l86 -7 17 -73 17 -73 46 -7 c24
-3 46 -5 48 -3 5 4 -136 582 -144 589 -3 4 -33 9 -66 13 l-60 6 -127 -277z
m195 145 c3 -18 17 -79 30 -136 l25 -103 -82 6 c-44 4 -86 8 -93 10 -12 4 95
254 108 255 4 0 9 -15 12 -32z"/>
<path d="M4605 10536 c-86 -27 -135 -86 -135 -163 0 -92 66 -144 204 -163 94
-12 127 -26 143 -61 30 -62 -27 -121 -118 -122 -58 -1 -95 22 -117 71 -16 35
-19 37 -61 34 -43 -3 -43 -4 -37 -35 19 -92 98 -150 207 -149 143 1 244 91
224 200 -17 89 -69 126 -208 148 -101 16 -140 37 -145 77 -5 37 14 67 53 83
67 28 132 9 154 -44 12 -28 15 -30 54 -25 23 3 44 7 45 9 10 8 -22 74 -46 97
-56 54 -134 69 -217 43z"/>
<path d="M6343 10443 c-55 -19 -122 -84 -152 -148 -28 -59 -39 -178 -22 -242
16 -60 67 -121 130 -156 95 -54 236 -48 308 12 23 19 73 89 73 101 0 4 -19 10
-42 14 -38 6 -44 4 -77 -28 -38 -37 -78 -56 -114 -56 -80 0 -169 63 -188 134
-26 95 17 224 93 273 101 68 251 8 275 -108 4 -21 13 -28 50 -36 l45 -11 -4
48 c-9 94 -88 182 -188 210 -50 14 -138 11 -187 -7z"/>
<path d="M3905 10388 c-16 -6 -31 -12 -33 -13 -2 -2 29 -103 68 -225 39 -123
69 -224 67 -226 -1 -2 -83 82 -182 187 -171 181 -180 189 -209 183 -51 -11
-101 -31 -100 -40 1 -10 166 -537 170 -542 3 -5 84 20 84 26 0 2 -32 104 -70
225 -39 121 -69 222 -67 223 2 2 84 -82 182 -186 99 -105 181 -190 184 -190
21 1 126 40 125 47 -5 38 -171 543 -179 542 -5 0 -23 -5 -40 -11z"/>
<path d="M6962 10303 c-22 -43 -194 -524 -189 -529 6 -6 350 -134 352 -131 11
19 26 69 22 73 -3 3 -52 23 -109 44 -57 21 -115 43 -130 49 l-28 10 27 73 c14
40 29 76 32 80 4 4 60 -12 126 -37 65 -24 120 -43 120 -42 1 1 6 15 13 30 7
15 12 32 12 36 0 5 -53 28 -117 52 -65 23 -119 44 -121 45 -3 2 49 154 52 154
0 0 60 -22 131 -49 l130 -48 14 34 c8 20 10 38 5 43 -5 4 -74 31 -154 60 -80
29 -153 56 -162 61 -12 7 -20 4 -26 -8z"/>
<path d="M3095 10083 c-27 -14 -51 -27 -53 -28 -4 -3 59 -599 64 -604 2 -2 22
4 45 14 l40 19 -7 65 c-3 36 -7 70 -8 75 0 5 48 33 107 62 l108 54 52 -56 53
-57 43 23 44 22 -64 66 c-138 144 -364 372 -369 372 -3 -1 -27 -13 -55 -27z
m136 -179 c52 -52 95 -98 96 -102 3 -7 -158 -85 -162 -80 -2 4 -31 278 -29
278 1 0 44 -43 95 -96z"/>
<path d="M7660 9714 c-124 -107 -226 -198 -228 -203 -2 -5 14 -18 34 -30 41
-24 36 -26 115 47 l36 33 104 -62 c57 -34 105 -62 106 -63 1 -1 -5 -28 -13
-61 -19 -84 -19 -87 26 -112 l40 -21 5 21 c3 12 30 146 59 297 39 202 50 278
42 286 -6 6 -31 23 -56 37 l-45 26 -225 -195z m214 -44 c-14 -69 -27 -131 -29
-137 -4 -13 -146 64 -151 82 -2 9 197 187 202 182 1 -1 -9 -58 -22 -127z"/>
<path d="M2670 9857 c-19 -11 -37 -22 -39 -23 -2 -2 63 -115 143 -253 l147
-250 37 22 c20 11 38 22 40 23 3 2 -254 444 -283 486 -10 15 -13 15 -45 -5z"/>
<path d="M2319 9611 c-67 -22 -262 -159 -251 -177 23 -39 328 -453 335 -453
18 -2 200 143 227 181 75 103 62 243 -34 355 -66 76 -196 120 -277 94z m124
-95 c44 -18 110 -93 132 -149 21 -57 16 -113 -15 -157 -25 -36 -118 -112 -131
-108 -11 4 -239 318 -239 329 0 9 42 40 102 74 48 28 102 32 151 11z"/>
<path d="M8233 9536 c-62 -29 -125 -92 -161 -161 -22 -42 -27 -63 -27 -130 0
-96 21 -142 90 -203 55 -48 100 -65 161 -60 24 2 44 1 44 -1 0 -3 -10 -15 -22
-28 l-22 -24 29 -24 c17 -13 35 -24 40 -25 11 0 185 223 185 237 -1 4 -51 47
-113 94 l-112 87 -22 -27 c-12 -14 -22 -29 -23 -33 0 -4 33 -32 73 -64 39 -31
72 -61 72 -67 0 -26 -57 -52 -115 -52 -50 0 -63 4 -96 31 -57 45 -76 77 -82
132 -10 108 84 228 201 256 40 10 102 -10 143 -46 51 -45 67 -82 62 -140 -5
-44 -2 -51 24 -73 38 -32 44 -31 57 6 28 80 8 168 -54 237 -91 101 -218 131
-332 78z"/>
<path d="M1721 9146 l-44 -45 124 -275 c68 -152 126 -276 129 -276 3 0 20 12
38 28 l33 27 -31 70 -32 69 86 83 86 83 68 -34 69 -35 32 33 32 33 -63 35
c-82 45 -474 248 -480 248 -2 0 -23 -20 -47 -44z m308 -193 c6 -5 -111 -123
-122 -123 -8 0 -97 183 -112 230 -6 20 7 15 111 -40 66 -35 121 -65 123 -67z"/>
<path d="M8689 8964 l-204 -204 135 -135 135 -135 30 30 30 30 -103 103 -102
102 62 63 63 62 92 -92 93 -93 27 28 28 27 -92 93 -92 92 56 58 56 59 99 -99
98 -98 30 31 30 30 -133 126 -134 126 -204 -204z"/>
<path d="M5288 9080 c-19 -41 -92 -204 -163 -362 -71 -159 -132 -288 -137
-288 -5 0 -74 48 -154 106 -80 58 -147 104 -148 102 -1 -2 37 -230 85 -508 49
-278 87 -511 86 -519 -1 -8 -31 10 -77 46 -276 219 -561 443 -564 443 -1 0
-11 -88 -21 -195 -10 -107 -22 -200 -26 -206 -4 -7 -98 8 -299 51 -160 34
-293 60 -295 58 -2 -2 68 -122 155 -266 88 -144 160 -266 160 -270 -1 -4 -63
-45 -140 -92 -76 -47 -139 -88 -140 -92 0 -3 6 -8 13 -10 26 -7 946 -483 947
-490 0 -5 -38 -57 -85 -117 -47 -60 -85 -112 -85 -115 0 -3 12 -6 26 -6 15 0
74 -7 133 -16 389 -57 562 -181 649 -465 36 -118 67 -337 88 -617 6 -88 7 -93
28 -90 17 2 21 11 23 43 47 810 163 1015 629 1110 62 13 146 26 188 30 59 6
76 11 72 21 -3 8 -42 61 -86 118 l-80 104 112 59 c62 33 278 145 480 249 202
104 368 191 368 194 0 3 -61 43 -136 90 -74 46 -137 87 -139 90 -2 3 70 126
160 273 90 147 158 267 152 267 -5 0 -140 -27 -299 -61 -159 -34 -291 -59
-293 -57 -2 1 -13 93 -24 202 -12 110 -22 201 -24 202 -1 1 -145 -110 -320
-248 -175 -137 -320 -249 -321 -247 -2 2 36 234 85 514 49 281 87 514 86 518
-2 6 -220 -146 -293 -204 -8 -6 -61 102 -169 343 -87 194 -161 360 -166 368
-5 10 -17 -7 -41 -60z"/>
<path d="M1376 8790 l-26 -32 185 -150 c102 -83 184 -152 183 -153 -2 -2 -113
23 -248 56 -135 32 -252 59 -260 58 -13 0 -80 -74 -88 -98 -1 -4 97 -90 220
-189 l222 -182 28 33 c15 17 27 34 27 37 0 3 -81 70 -180 150 -100 80 -183
149 -186 154 -3 4 5 5 18 1 13 -5 131 -34 262 -65 l238 -57 39 50 c22 27 40
53 40 57 0 8 -415 349 -434 356 -8 3 -25 -9 -40 -26z"/>
<path d="M9095 8574 c-115 -91 -216 -171 -224 -179 -11 -11 -10 -18 10 -44 12
-17 26 -31 29 -31 4 0 90 65 191 144 101 79 185 142 187 141 2 -2 -49 -107
-112 -234 -64 -127 -116 -236 -116 -242 0 -6 17 -32 37 -57 21 -26 38 -49 40
-51 2 -3 141 104 364 279 l97 76 -28 34 -28 34 -93 -72 c-52 -39 -138 -106
-192 -148 l-98 -76 51 104 c28 56 81 166 119 243 l68 140 -40 50 c-21 27 -42
51 -46 52 -3 1 -100 -72 -216 -163z"/>
<path d="M866 8095 l-36 -55 191 -235 c105 -129 194 -235 198 -235 3 0 16 16
29 36 l23 36 -45 55 c-25 30 -46 59 -46 64 0 7 97 172 117 198 2 4 115 -17
137 -25 7 -3 25 13 40 36 19 29 23 42 14 45 -7 3 -134 32 -283 65 -148 33
-277 63 -286 65 -11 4 -27 -12 -53 -50z m219 -80 c61 -14 116 -27 122 -30 8
-3 -4 -30 -35 -79 -26 -42 -50 -75 -53 -73 -4 1 -42 45 -85 97 -109 133 -102
124 -79 117 11 -4 70 -18 130 -32z"/>
<path d="M9573 8090 c-94 -20 -187 -90 -231 -174 -50 -96 -29 -228 52 -323 56
-66 176 -101 250 -73 l25 9 -22 40 c-21 38 -24 40 -59 35 -84 -14 -174 69
-186 171 -9 83 54 167 158 212 55 23 149 14 193 -20 75 -57 97 -166 48 -235
l-21 -30 23 -41 23 -41 26 28 c46 48 62 92 62 162 0 179 -166 316 -341 280z"/>
<path d="M710 7661 c-75 -23 -138 -80 -172 -158 -65 -148 -5 -299 150 -375 58
-29 76 -33 147 -33 59 0 90 5 119 19 54 27 104 80 132 140 51 110 41 205 -31
284 -46 50 -53 50 -75 -6 -11 -30 -11 -35 8 -55 62 -66 51 -178 -24 -249 -56
-52 -120 -61 -204 -29 -139 53 -194 164 -139 278 26 54 71 86 129 93 40 4 47
9 65 43 17 33 18 39 5 47 -18 11 -74 12 -110 1z"/>
<path d="M9921 7451 l-123 -160 -87 -36 c-134 -58 -124 -49 -101 -95 23 -45
10 -46 145 12 l80 35 200 -22 c110 -12 201 -21 203 -20 1 1 -7 23 -18 48 l-20
45 -63 6 c-34 4 -102 10 -150 14 l-88 7 91 109 c50 59 92 112 95 116 5 7 -30
100 -37 100 -2 0 -59 -72 -127 -159z"/>
<path d="M3586 5898 c-2 -24 -10 -115 -16 -203 -28 -409 -90 -618 -219 -745
-136 -133 -340 -189 -816 -223 -159 -11 -170 -13 -170 -32 0 -18 9 -21 105
-27 346 -23 526 -49 658 -96 295 -104 394 -291 438 -825 25 -309 23 -297 44
-297 20 0 17 -19 40 285 29 387 96 594 230 718 138 127 365 183 860 215 106 6
115 9 115 27 0 19 -12 21 -215 36 -238 18 -338 31 -450 59 -375 92 -495 284
-540 865 -23 306 -20 285 -40 285 -15 0 -20 -10 -24 -42z"/>
<path d="M7002 5754 c-33 -506 -101 -715 -274 -847 -139 -105 -375 -158 -815
-183 -117 -6 -123 -8 -123 -28 0 -21 6 -22 186 -34 827 -55 971 -199 1026
-1026 12 -180 13 -186 33 -186 21 0 22 6 34 186 27 409 76 618 179 752 129
171 344 241 846 274 180 12 186 13 186 33 0 21 -6 22 -186 34 -449 30 -658 87
-795 218 -138 132 -199 346 -230 807 -12 179 -14 186 -34 186 -20 0 -21 -7
-33 -186z"/>
<path d="M106 4809 c4 -24 10 -47 13 -52 4 -4 36 -12 72 -18 35 -7 66 -13 68
-15 3 -2 12 -56 21 -120 19 -132 25 -118 -71 -165 -46 -22 -47 -22 -42 -63 3
-23 8 -44 12 -47 3 -3 125 56 271 132 l265 138 -3 58 c-2 32 -9 63 -15 69 -7
6 -138 34 -292 64 -154 29 -286 55 -293 58 -10 3 -11 -6 -6 -39z m394 -129
c63 -12 117 -23 119 -25 2 -2 -52 -31 -119 -65 -67 -34 -124 -60 -125 -58 -5
5 -25 129 -25 156 0 18 4 22 18 18 9 -3 69 -15 132 -26z"/>
<path d="M9913 4553 c-17 -98 -29 -180 -27 -182 8 -9 559 -100 565 -93 3 4 18
79 33 167 15 88 30 170 32 181 5 18 0 23 -31 28 -20 4 -39 5 -42 2 -3 -3 -16
-65 -29 -137 -13 -73 -26 -134 -29 -137 -9 -9 -165 21 -165 32 0 6 9 63 21
125 22 124 21 131 -32 131 -29 0 -27 6 -66 -217 -3 -18 -10 -33 -15 -33 -15 0
-142 23 -147 26 -2 2 7 62 20 134 25 143 24 150 -32 150 -25 0 -26 -1 -56
-177z"/>
<path d="M494 4266 c-102 -26 -177 -86 -217 -175 -15 -35 -18 -59 -15 -117 6
-90 39 -151 101 -188 l42 -26 -33 -6 c-18 -4 -34 -10 -37 -14 -5 -8 16 -80 24
-80 10 0 283 79 287 83 2 2 -14 64 -35 138 l-38 134 -32 -2 c-18 0 -35 -4 -38
-7 -4 -3 5 -49 19 -101 16 -57 22 -98 16 -101 -5 -3 -29 -3 -54 1 -95 14 -161
125 -134 226 25 92 133 155 255 147 76 -5 127 -38 156 -102 32 -71 22 -136
-31 -191 -27 -29 -28 -32 -17 -72 6 -24 15 -43 19 -43 17 0 91 76 110 114 60
117 -10 304 -135 365 -55 27 -147 34 -213 17z"/>
<path d="M5296 4133 c-38 -551 -90 -755 -232 -897 -134 -134 -385 -201 -838
-222 -143 -7 -146 -8 -146 -30 0 -21 5 -22 98 -28 53 -4 169 -14 257 -22 666
-64 802 -225 855 -1012 5 -85 10 -160 10 -168 0 -8 10 -14 25 -14 24 0 25 2
25 68 0 37 7 145 15 241 41 459 126 656 333 764 150 79 334 113 775 143 93 6
98 8 95 28 -3 18 -11 21 -53 23 -127 6 -350 25 -447 39 -456 63 -619 226 -682
682 -14 97 -33 320 -39 447 -2 42 -5 50 -23 53 -20 3 -22 -2 -28 -95z"/>
<path d="M9831 4153 c-6 -21 -7 -40 -3 -43 4 -4 102 -35 217 -70 116 -35 213
-66 217 -70 5 -3 -106 -23 -245 -44 -138 -22 -257 -43 -263 -47 -6 -5 -16 -28
-23 -51 -7 -24 -14 -51 -17 -60 -5 -18 -22 -12 369 -132 177 -53 178 -54 186
-32 26 68 42 57 -204 132 -202 61 -260 85 -207 84 9 -1 126 16 259 37 l242 37
20 65 c11 36 19 66 18 67 -5 4 -537 164 -546 164 -5 0 -15 -17 -20 -37z"/>
<path d="M708 3555 c-142 -61 -260 -114 -263 -117 -4 -4 129 -330 141 -346 5
-7 74 19 74 27 0 4 -25 65 -55 135 -31 71 -54 130 -52 132 13 14 151 64 157
57 5 -4 27 -53 50 -108 23 -55 46 -104 50 -109 10 -10 70 12 70 26 0 5 -20 57
-45 115 -25 59 -44 110 -42 116 1 5 33 22 70 38 l68 29 28 -63 c15 -34 40 -92
55 -129 l28 -67 34 17 c19 8 34 20 34 25 0 11 -131 320 -139 328 -3 3 -122
-45 -263 -106z"/>
<path d="M9627 3549 c-9 -24 -16 -43 -14 -44 1 -1 94 -43 207 -95 113 -52 209
-98 215 -102 5 -4 -83 -8 -195 -8 -113 0 -235 -3 -271 -6 l-65 -7 -26 -58
c-26 -58 -26 -59 -7 -70 46 -24 492 -229 500 -229 9 0 39 52 39 68 0 5 -96 54
-214 108 l-214 99 268 9 268 9 26 60 c14 33 25 61 23 63 -2 2 -486 229 -513
240 -6 3 -18 -14 -27 -37z"/>
<path d="M940 3040 c-129 -77 -239 -141 -245 -143 -12 -4 25 -77 39 -77 8 0
72 36 344 197 41 24 70 38 66 31 -4 -7 -72 -109 -151 -226 l-144 -213 37 -60
c34 -57 37 -59 58 -46 11 7 120 71 241 142 121 70 224 131 228 135 7 6 -28 80
-38 80 -5 0 -380 -222 -390 -231 -38 -37 -5 21 122 212 l148 221 -31 56 c-16
31 -34 57 -39 58 -6 2 -116 -59 -245 -136z"/>
<path d="M9274 2874 c-54 -87 -93 -159 -88 -163 34 -31 479 -300 485 -294 4 4
50 77 103 162 90 142 95 154 79 167 -20 15 -53 28 -57 22 -2 -1 -35 -56 -75
-120 -46 -74 -77 -115 -85 -111 -89 53 -135 87 -129 96 4 7 35 57 70 112 l62
99 -27 18 c-15 10 -32 18 -37 18 -6 0 -40 -47 -75 -105 -36 -58 -68 -105 -72
-105 -13 0 -127 75 -128 84 0 4 32 58 71 120 l70 111 -28 22 c-15 13 -31 23
-35 23 -4 0 -50 -70 -104 -156z"/>
<path d="M1356 2535 c-163 -67 -242 -225 -190 -378 20 -59 91 -139 149 -167
53 -26 136 -28 189 -6 l37 16 -26 34 c-25 33 -27 34 -88 29 -50 -3 -68 0 -93
16 -42 26 -80 77 -93 125 -23 86 38 189 141 240 88 44 165 31 225 -37 56 -63
64 -126 29 -209 -5 -11 2 -27 22 -49 l29 -33 18 27 c71 109 55 228 -43 327
-92 91 -191 112 -306 65z"/>
<path d="M9034 2525 c-26 -35 -27 -36 -8 -50 10 -7 114 -86 229 -174 l210
-161 28 32 c15 18 27 35 27 38 0 6 -415 324 -446 343 -8 5 -22 -5 -40 -28z"/>
<path d="M8867 2246 c-65 -18 -116 -55 -203 -151 l-73 -81 212 -197 212 -196
82 87 c94 99 125 153 131 228 6 75 -20 143 -79 209 -82 89 -186 126 -282 101z
m164 -122 c88 -64 127 -155 100 -236 -6 -19 -33 -59 -60 -89 l-48 -54 -54 47
c-30 26 -99 90 -154 142 l-100 94 45 47 c71 75 95 87 167 83 50 -3 70 -10 104
-34z"/>
<path d="M1732 1933 l-201 -208 134 -135 135 -135 30 31 30 30 -103 101 -103
101 60 62 59 61 93 -92 93 -93 26 24 c14 13 25 29 25 35 0 6 -41 51 -90 100
l-91 88 53 54 c29 29 56 53 60 53 4 0 52 -43 106 -95 l99 -94 26 27 27 28
-134 133 -133 133 -201 -209z"/>
<path d="M8308 1767 l-47 -43 107 -282 c59 -155 112 -282 118 -282 5 0 22 13
37 28 l27 29 -25 68 c-14 37 -22 71 -18 75 67 63 179 148 187 143 6 -4 35 -22
64 -40 l52 -34 35 28 c19 15 35 31 35 34 0 5 -500 310 -519 316 -3 1 -27 -17
-53 -40z m300 -212 c4 -3 -130 -115 -138 -115 -5 0 -100 240 -100 253 0 5 213
-119 238 -138z"/>
<path d="M2480 1559 c-32 -13 -68 -47 -86 -81 -31 -59 -9 -122 80 -233 65 -81
73 -119 31 -160 -38 -39 -94 -29 -152 27 -39 37 -51 86 -32 130 12 29 11 32
-17 54 -40 33 -49 30 -68 -16 -32 -80 -9 -170 57 -226 121 -103 267 -93 318
20 10 23 19 52 19 66 0 39 -32 99 -88 166 -62 74 -76 105 -60 138 13 30 59 50
93 42 34 -9 93 -62 97 -89 2 -12 0 -35 -4 -52 -7 -25 -4 -33 20 -52 15 -12 32
-22 38 -23 17 0 34 47 34 97 0 129 -161 239 -280 192z"/>
<path d="M7974 1507 l-32 -23 128 -199 c70 -110 127 -201 125 -203 -1 -1 -44
24 -96 56 -52 33 -153 96 -225 140 l-132 81 -56 -35 c-31 -20 -56 -38 -56 -41
0 -6 287 -461 300 -476 8 -9 64 16 74 32 4 5 -50 98 -120 206 -69 109 -124
198 -122 200 2 1 104 -60 227 -137 l224 -138 58 38 58 37 -152 239 c-84 132
-157 241 -162 242 -6 2 -24 -7 -41 -19z"/>
<path d="M2831 1065 c-72 -135 -131 -249 -131 -255 0 -10 52 -40 69 -40 6 0
23 24 37 53 15 28 37 71 51 94 l24 42 82 -40 c129 -62 203 -50 264 42 22 33
27 53 28 99 0 81 -31 117 -166 192 -57 31 -109 58 -115 58 -7 0 -71 -110 -143
-245z m321 35 c15 -30 16 -37 2 -69 -19 -46 -39 -61 -83 -61 -26 0 -120 41
-148 65 -3 2 50 105 74 143 l14 23 62 -34 c42 -23 67 -44 79 -67z"/>
<path d="M7281 1115 c-46 -21 -52 -28 -48 -47 3 -13 18 -149 33 -303 15 -154
28 -281 30 -283 1 -2 21 6 44 18 l42 21 -7 75 -7 74 107 51 108 50 56 -54 56
-54 38 19 c20 10 37 21 37 24 0 11 -414 434 -424 433 -6 0 -35 -11 -65 -24z
m239 -278 c0 -11 -149 -79 -159 -72 -5 2 -11 38 -14 78 -4 41 -9 101 -13 133
l-6 59 96 -95 c53 -52 96 -98 96 -103z"/>
<path d="M3330 816 c-107 -123 -196 -229 -198 -234 -1 -5 16 -16 38 -25 l40
-15 48 54 c26 29 52 54 57 54 6 0 56 -18 113 -41 l102 -41 0 -78 0 -77 42 -16
c23 -9 42 -16 43 -14 3 3 13 204 20 402 3 83 8 163 10 178 4 25 0 30 -38 46
-86 37 -65 52 -277 -193z m217 -23 c-4 -76 -9 -139 -11 -140 -5 -5 -158 63
-158 71 -1 9 164 205 172 206 3 0 2 -62 -3 -137z"/>
<path d="M6757 920 c-157 -40 -245 -177 -216 -336 39 -212 226 -317 412 -231
59 27 101 66 127 117 19 38 35 124 25 139 -3 6 -23 4 -49 -5 -40 -14 -44 -18
-49 -54 -11 -82 -85 -139 -180 -140 -26 0 -61 7 -76 14 -110 57 -158 247 -87
341 63 82 180 98 257 35 39 -31 43 -32 80 -21 21 7 39 16 39 21 0 19 -64 82
-103 101 -46 24 -126 32 -180 19z"/>
<path d="M3836 879 c-3 -17 -6 -35 -6 -38 0 -4 32 -15 70 -25 39 -10 73 -22
75 -27 3 -4 -24 -111 -60 -237 -36 -126 -65 -232 -65 -235 0 -7 80 -30 85 -25
2 2 33 109 70 238 36 129 67 235 68 236 1 1 37 -9 79 -21 l77 -22 12 34 c6 19
7 38 3 42 -11 9 -367 111 -387 111 -8 0 -17 -14 -21 -31z"/>
<path d="M4384 734 c-4 -22 -28 -149 -54 -282 -32 -164 -43 -245 -36 -248 6
-2 27 -5 46 -6 l34 -3 54 278 c29 154 51 281 49 284 -3 2 -23 7 -45 10 -40 5
-41 5 -48 -33z"/>
<path d="M5895 719 c-77 -11 -145 -21 -150 -23 -10 -4 53 -558 65 -570 3 -2
89 6 190 19 102 14 186 25 187 25 2 0 -9 74 -12 77 -1 2 -65 -5 -143 -15 -163
-21 -147 -29 -158 84 l-6 71 98 12 c158 19 154 17 154 56 0 19 -3 36 -8 39 -4
2 -63 -3 -130 -11 -67 -9 -124 -14 -126 -12 -2 2 -7 38 -11 80 l-7 76 38 6
c22 3 83 11 137 18 l98 12 -3 36 c-3 34 -5 36 -38 37 -19 1 -98 -7 -175 -17z"/>
<path d="M4778 658 c-163 -352 -229 -500 -226 -502 1 -2 22 -6 46 -9 l43 -5
31 69 31 70 76 -7 c42 -4 96 -10 121 -13 l45 -6 16 -70 16 -70 43 -7 c24 -4
46 -5 48 -3 5 5 -128 570 -138 584 -3 5 -33 12 -66 16 l-62 7 -24 -54z m116
-186 c14 -62 26 -117 26 -123 0 -10 -144 -2 -167 10 -7 4 7 46 45 129 34 76
58 118 63 110 3 -7 18 -64 33 -126z"/>
<path d="M5244 634 c3 -26 6 -156 6 -290 l0 -244 149 0 c82 0 163 3 180 6 28
6 31 10 31 46 l0 40 -132 -3 -133 -4 -3 248 -2 247 -52 0 -51 0 7 -46z"/>
</g>
</svg>
